<svg width="65" height="69" viewBox="0 0 65 69" fill="none" xmlns="http://www.w3.org/2000/svg">
<path d="M13.3678 24.6253H8.15554V24.7488C9.07533 25.0574 9.81144 26.5384 10.2407 27.5876L25.7547 61.964C25.816 62.1492 26.3068 63.3216 26.3068 64.1856H27.165C27.165 63.8768 27.2268 63.0126 27.8399 61.7169L42.9856 28.4519C43.2309 27.8347 43.3539 27.2791 43.3539 26.7854C43.3539 25.4894 42.434 24.6254 40.104 24.6253H34.3396V24.0696H49.0566V24.6253H48.1979C45.8066 24.6254 45.4998 25.7364 44.3348 28.4519L26.4907 68.7529L22.8725 69L4.96674 28.4519C3.74033 25.6746 3.43372 24.6253 0.980892 24.6253H0V24.0696H13.3678V24.6253Z" fill="white"/>
<path d="M38.6321 0C54.4528 0 65 8.88748 65 22.1566C64.9999 35.4873 54.4527 44.3747 38.6321 44.3747H37.9554L38.4626 43.2284C51.98 42.6768 59.1744 35.3253 59.1745 22.1566C59.1745 8.45546 51.3868 1.11078 36.7924 1.11078H29.6795V1.17286C30.4764 1.91335 30.7831 2.65389 30.7831 4.07308V40.301C30.7831 41.7204 30.4766 42.4613 29.6795 43.2018V43.2633H35.5666L35.0612 44.3747H19.6226V43.819H21.9527C25.2027 43.819 25.5709 43.5104 25.5709 40.5481V4.38166C25.5709 1.41944 25.2026 0.555693 21.9527 0.555693H19.6226V0H38.6321Z" fill="white"/>
</svg>
